<?xml version="1.0" encoding="utf-8"?>
<!-- Generator: Adobe Illustrator 23.0.0, SVG Export Plug-In . SVG Version: 6.00 Build 0)  -->
<svg version="1.1" xmlns="http://www.w3.org/2000/svg" xmlns:xlink="http://www.w3.org/1999/xlink" x="0px" y="0px"
	 viewBox="0 0 147.7 162.1" style="enable-background:new 0 0 147.7 162.1;" xml:space="preserve">
<style type="text/css">
	.st0{fill:#082E6B;}
</style>
<g id="Layer_1">
	<g id="Background_xA0_Image_1_">
	</g>
</g>
<g id="Layer_2">
	<g id="Layer_6_xA0_Image_1_">
		<g id="XMLID_1_">
			<g>
				<path class="st0" d="M110.6,32.5c1.2,2.3,1.1,4.7,0.5,7.1c-0.5,1.9-1.3,3.6-2.1,5.4c-2.4,5.1-5.2,10-8.4,14.6
					c-3.4,4.8-7.3,9-12.2,12.3c-0.4,0.3-0.6,0.6-0.8,1c-0.9,2.5-1.6,5.1-2.2,7.8c-1.7,7.5-4.2,14.6-7,21.7c-0.5,1.4-1.1,2.7-1.6,4
					c-0.2,0.6-0.2,0.7,0.4,0.8c2.4,0.4,4.8,0.5,7.2,0.5c4.2,0,8.3-0.6,12.3-1.9c2.7-0.9,5.2-2.3,7.2-4.3c0.7-0.7,1.5-1.3,2.2-2
					c0.2-0.2,0.5-0.4,0.8-0.2c0.3,0.2,0.3,0.5,0.2,0.8c-0.1,0.9-0.5,1.6-1,2.4c-1.4,2.2-3.4,3.7-5.6,4.9c-3.8,2-7.8,3-12,3.4
					c-1.3,0.1-2.7,0.3-4,0.3c-2.9,0-5.8-0.1-8.7-0.5c-0.8-0.1-0.8-0.1-1.2,0.6c-2,4-4.3,7.7-7.1,11.2c-2.6,3.2-5.4,6.1-8.9,8.3
					c-1.8,1.1-3.6,2-5.8,2.2c-2.8,0.3-5-0.7-6.5-3.1c-2.5-4.1-2.2-8.1,0.3-12.1c1.6-2.6,3.8-4.6,6.4-6.1c2.6-1.5,5.3-3,8.2-4
					c0.5-0.2,1.1-0.4,1.7-0.5c0.1,0,0.3,0,0.3-0.2c0-0.2-0.1-0.2-0.3-0.3c-1.8-1-3.4-2.1-5-3.4c-4.4-3.7-7.4-8.4-9-13.9
					c-0.9-3-1.3-6-1.5-9.1c-0.3-6.5,0.6-12.9,2.3-19.2c1.3-4.8,3-9.4,5.2-13.8c1.9-3.7,4.2-7.2,7.2-10c1.6-1.5,3.4-2.7,5.5-3.2
					c2.9-0.7,5.8,0.4,7.5,2.9c1.2,1.8,1.8,3.9,2.2,6.1c0.1,0.5,0.1,1,0.3,1.5c0.3-0.1,0.3-0.4,0.3-0.6c0.7-2.2,1.4-4.4,2-6.6
					c0.1-0.4,0.2-0.9,0.7-0.8c0.4,0.1,0.4,0.6,0.4,0.9c0.1,1.4-0.1,2.7-0.4,4C79.8,48,78.4,54.2,77,60.5c-0.1,0.4-0.2,0.9-0.3,1.3
					c-0.3,1.1-1,1.7-2.1,1.7c-1.1,0-1.9-0.6-2.3-1.6c-0.2-0.6-0.2-1.3-0.1-1.9c0.7-3.5,1-7.1,1.1-10.7c0.1-2.3,0.1-4.6-0.2-6.9
					c-0.2-1.3-0.5-2.5-1.2-3.6s-1.8-1.5-3-1.4c-1.5,0.2-2.6,1-3.7,1.9c-2.3,2-3.9,4.5-5.2,7.1c-2.4,4.6-3.9,9.4-5.1,14.4
					C54,64.1,53.4,67.5,53,71c-0.5,5.3-0.7,10.6,0.4,15.9c0.8,3.8,2.2,7.4,4.5,10.5c2.7,3.7,6.4,6.3,10.7,7.9
					c0.9,0.3,1.7,0.6,2.6,0.8c0.8,0.2,0.8,0.2,1.1-0.5c1.1-2.9,2.2-5.9,3.3-8.8c1-2.7,2.1-5.4,3.1-8.1c1.5-4.2,2.5-8.6,3.7-12.9
					c0-0.1,0.1-0.3,0-0.5c-0.2-0.1-0.4,0-0.5,0.1c-2.1,0.9-4.3,1.5-6.5,1.8c-3,0.4-6,0.1-8.8-1.1c-1.1-0.5-2-1.2-2.8-2.1
					c-0.1-0.1-0.1-0.2-0.2-0.2c-0.1-0.3-0.3-0.6-0.1-0.9c0.2-0.3,0.5-0.2,0.8-0.1c0.1,0,0.3,0.1,0.4,0.1c4.7,2.3,9.5,1.9,14.3,0.2
					c1.5-0.5,2.9-1.2,4.3-1.9c0.5-0.2,0.8-0.6,1-1.1c1.6-4.4,3.2-8.7,4.9-13c1.9-5.1,4.5-9.9,7.4-14.5c1.8-2.7,3.5-5.5,5.5-8
					c1-1.3,2.2-2.4,3.6-3.3C107.9,29.9,109.5,30.4,110.6,32.5z M110,37c0-1.9-0.3-3.2-1.1-4.3c-0.5-0.7-0.9-0.8-1.6-0.3
					c-0.1,0.1-0.3,0.2-0.4,0.3c-1.2,0.9-2.2,2.1-3,3.3c-1.1,1.7-2.1,3.5-3.2,5.2c-3,5.1-5.8,10.3-7.7,15.9c-1,3-2.1,6.1-3.1,9.1
					c0,0.1-0.1,0.3,0,0.4c0.1,0.1,0.3,0,0.4-0.1c0.7-0.6,1.4-1.2,2-1.8c3.2-3,6-6.5,8.5-10.1c2.9-4,5.5-8.1,7.7-12.6
					C109.3,40.2,110,38.4,110,37z M70.3,110.3c0.2-0.5,0.2-0.5-0.3-0.7c-0.8-0.2-1.7-0.3-2.6-0.2c-2.1-0.1-4.2,0.4-6.2,1.2
					c-2.7,1.1-5.3,2.5-7.8,4c-2.1,1.3-3.9,3.1-5.1,5.3c-1.5,2.7-1.8,5.5-0.2,8.3c0.9,1.5,2.2,2.2,3.9,2c0.5-0.1,0.9-0.2,1.4-0.4
					c1.9-0.7,3.5-2,5-3.4c2.8-2.7,5.3-5.8,7.5-8.9C67.5,115.1,69,112.8,70.3,110.3z"/>
			</g>
		</g>
	</g>
</g>
</svg>
