<?xml version="1.0" encoding="utf-8"?>
<!-- Generator: Adobe Illustrator 23.0.0, SVG Export Plug-In . SVG Version: 6.00 Build 0)  -->
<svg version="1.1" xmlns="http://www.w3.org/2000/svg" xmlns:xlink="http://www.w3.org/1999/xlink" x="0px" y="0px"
	 viewBox="0 0 905.45 1160.73" style="enable-background:new 0 0 905.45 1160.73;" xml:space="preserve">
<style type="text/css">
	.st0{fill:#082E6B;}
</style>
<g id="Background_xA0_Image_1_">
	<g>
	</g>
</g>
<g id="Layer_6_xA0_Image_1_">
	<g id="XMLID_1_">
		<g>
			<path class="st0" d="M326.36,466.08c-4.35,18.33-7.73,36.83-9.57,55.59c-2.83,28.95-3.64,57.88,2.42,86.59
				c4.36,20.68,11.94,40.07,24.47,57.25c14.86,20.37,34.73,34.11,58.18,42.9c4.67,1.76,9.44,3.29,14.31,4.44
				c4.11,0.98,4.42,0.92,5.88-2.96c6.02-16,11.94-32.03,17.98-48.01c5.57-14.71,11.48-29.29,16.82-44.07
				c8.3-22.95,13.42-46.82,20.16-70.23c0.24-0.84,0.74-1.86-0.16-2.53c-0.94-0.71-1.93-0.03-2.83,0.34
				c-11.49,4.72-23.34,8.13-35.69,9.63c-16.47,2-32.47,0.32-47.84-6.2c-6.06-2.57-11.05-6.59-15.32-11.55
				c-0.35-0.41-0.67-0.86-0.93-1.34c-0.78-1.48-1.51-3.12-0.44-4.63c1.18-1.66,2.95-0.89,4.52-0.49c0.79,0.2,1.57,0.46,2.31,0.81
				c25.82,12.31,51.85,10.26,77.98,1.16c8.09-2.82,15.76-6.57,23.37-10.48c2.65-1.36,4.37-3.26,5.42-6.11
				c8.79-23.69,17.65-47.36,26.54-71.01c10.47-27.86,24.23-54.04,40.36-79.02c9.56-14.81,18.78-29.86,29.96-43.56
				c5.66-6.94,11.99-13.17,19.77-17.76c11.42-6.75,19.97-4.21,26.04,7.6c6.42,12.5,5.87,25.42,2.44,38.52
				c-2.65,10.16-6.91,19.72-11.36,29.19c-13.1,27.85-28.27,54.55-45.96,79.75c-18.32,26.11-39.99,48.95-66.51,66.95
				c-2.05,1.39-3.34,3.2-4.12,5.56c-4.62,13.9-8.66,27.98-11.85,42.26c-9.06,40.59-22.69,79.68-38.2,118.18
				c-2.95,7.34-5.95,14.66-8.9,21.99c-1.24,3.08-0.86,3.71,2.27,4.17c12.98,1.92,26.06,2.75,39.13,2.58
				c22.81-0.29,45.32-3.04,67.13-10.23c14.91-4.92,28.16-12.53,39.43-23.55c3.83-3.75,7.95-7.2,11.99-10.72
				c1.14-0.99,2.44-2.2,4.13-1.24c1.76,0.99,1.48,2.81,1.24,4.41c-0.71,4.66-2.62,8.87-5.15,12.81
				c-7.65,11.85-18.36,20.3-30.58,26.91c-20.41,11.03-42.52,16.22-65.4,18.66c-7.32,0.78-14.65,1.46-22.01,1.55
				c-15.93,0.22-31.79-0.64-47.58-2.8c-4.35-0.59-4.43-0.51-6.47,3.56c-10.84,21.59-23.38,42.13-38.68,60.87
				c-14.08,17.24-29.54,33.08-48.39,45.25c-9.65,6.23-19.85,11.17-31.45,12.27c-14.97,1.41-27.11-3.83-35.18-16.68
				c-13.9-22.12-12.09-44.13,1.52-65.7c8.86-14.04,20.75-24.96,35.1-33.23c14.34-8.26,28.8-16.29,44.45-21.91
				c2.99-1.07,6.07-1.9,9.1-2.85c0.67-0.21,1.59-0.24,1.77-1.06c0.24-1.08-0.82-1.29-1.48-1.66c-9.55-5.33-18.59-11.39-26.99-18.41
				c-24.14-20.2-40.44-45.46-49.12-75.68c-4.65-16.15-7.05-32.65-7.93-49.42c-1.86-35.59,3.39-70.31,12.51-104.59
				c6.92-26,16.1-51.15,28.43-75.08c10.38-20.14,22.65-39,39.39-54.56c8.7-8.08,18.36-14.6,30.15-17.33
				c15.98-3.7,31.55,2.4,40.8,15.94c6.83,9.99,9.94,21.33,11.88,33.09c0.45,2.71,0.49,5.53,1.46,8.28c1.51-0.78,1.49-2.09,1.82-3.15
				c3.71-12.07,7.36-24.17,11.09-36.24c0.6-1.94,1.2-4.63,3.8-4.2c2.35,0.38,2.23,3.13,2.36,5.01c0.51,7.4-0.66,14.7-1.88,21.95
				c-5.8,34.44-13.33,68.52-21.17,102.54c-0.55,2.39-0.99,4.81-1.69,7.16c-1.79,5.98-5.73,9.06-11.41,9.1
				c-5.77,0.04-10.42-3.34-12.31-8.95c-1.17-3.45-1.29-6.99-0.59-10.51c3.84-19.31,5.18-38.88,6.29-58.49
				c0.72-12.64,0.83-25.25-1.24-37.79c-1.12-6.84-2.73-13.55-6.75-19.41c-4.01-5.83-9.66-8.15-16.51-7.36
				c-8.04,0.93-14.35,5.44-20.22,10.59c-12.36,10.86-21.09,24.44-28.6,38.86C341.14,412.44,332.8,438.93,326.36,466.08z
				 M410.71,735.66c1.34-2.61,1.09-2.98-1.65-3.8c-4.59-1.37-9.28-1.65-14.13-1.36c-11.64-0.51-22.8,1.93-33.59,6.52
				c-14.75,6.26-28.93,13.64-42.57,22c-11.73,7.19-21.29,16.65-28.07,28.74c-8.38,14.93-9.86,30.07-1.1,45.36
				c4.71,8.22,11.85,12.03,21.42,10.77c2.53-0.33,4.98-0.99,7.37-1.9c10.51-3.98,19.06-10.89,26.98-18.56
				c15.31-14.84,28.71-31.33,41.08-48.67C395.37,762.25,403.69,749.35,410.71,735.66z M626.96,336.72
				c0.08-10.53-1.82-17.35-6.01-23.46c-2.57-3.74-4.9-4.18-8.81-1.85c-0.78,0.47-1.52,1-2.24,1.55
				c-6.61,4.98-11.87,11.2-16.53,17.98c-6.29,9.15-11.73,18.81-17.28,28.41c-16.07,27.8-31.57,55.87-41.99,86.43
				c-5.62,16.51-11.38,32.98-17.07,49.48c-0.23,0.66-0.81,1.52-0.18,2.03c0.83,0.69,1.51-0.26,2.06-0.75
				c3.7-3.23,7.42-6.42,10.99-9.78c17.55-16.52,32.52-35.26,46.5-54.8c15.62-21.83,30.13-44.36,41.97-68.51
				C622.99,354.03,626.8,344.32,626.96,336.72z"/>
		</g>
		<g>
		</g>
	</g>
</g>
</svg>
