<?xml version="1.0" encoding="utf-8"?>
<!-- Generator: Adobe Illustrator 23.0.0, SVG Export Plug-In . SVG Version: 6.00 Build 0)  -->
<svg version="1.1" id="Layer_1" xmlns="http://www.w3.org/2000/svg" xmlns:xlink="http://www.w3.org/1999/xlink" x="0px" y="0px"
	 viewBox="0 0 457 451" style="enable-background:new 0 0 457 451;" xml:space="preserve">
<style type="text/css">
	.st0{clip-path:url(#SVGID_2_);}
	.st1{clip-path:url(#SVGID_4_);fill:#D3C4B5;}
	.st2{clip-path:url(#SVGID_4_);}
	.st3{fill:#E5DBD3;}
	.st4{font-family:'Garamond';}
	.st5{font-size:76.3741px;}
	.st6{clip-path:url(#SVGID_6_);fill:#010101;}
	.st7{clip-path:url(#SVGID_6_);fill:#ED2224;}
	.st8{clip-path:url(#SVGID_6_);fill:#FFFFFF;}
	.st9{clip-path:url(#SVGID_6_);fill:none;stroke:#010101;stroke-width:0.5;stroke-miterlimit:10;}
	.st10{clip-path:url(#SVGID_6_);fill:#D3C4B5;}
	.st11{clip-path:url(#SVGID_6_);fill:#939598;}
	.st12{clip-path:url(#SVGID_6_);fill:#999B9E;}
	.st13{fill:none;stroke:#072E6B;stroke-width:4;stroke-miterlimit:10;}
</style>
<g>
	<g>
		<defs>
			<circle id="SVGID_1_" cx="217" cy="217" r="193.5"/>
		</defs>
		<clipPath id="SVGID_2_">
			<use xlink:href="#SVGID_1_"  style="overflow:visible;"/>
		</clipPath>
		<g class="st0">
			<g>
				<defs>
					<rect id="SVGID_3_" x="22.27" y="1" width="389.45" height="504"/>
				</defs>
				<clipPath id="SVGID_4_">
					<use xlink:href="#SVGID_3_"  style="overflow:visible;"/>
				</clipPath>
				<rect x="22.27" y="1" class="st1" width="389.45" height="504"/>
				<g class="st2">
					<text transform="matrix(1 0 0 1 41.6538 77.6421)" class="st3 st4 st5">MASCARA</text>
				</g>
				<g class="st2">
					<defs>
						<rect id="SVGID_5_" x="22.27" y="1" width="389.45" height="504"/>
					</defs>
					<clipPath id="SVGID_6_">
						<use xlink:href="#SVGID_5_"  style="overflow:visible;"/>
					</clipPath>
					<path class="st6" d="M253.14,381.3l-4.6,161.8c0,0-6.24,19.21-28.51,19.69c-22.27,0.48-33.41-8.43-37.4-18.27l-2.66-164.78
						c0.05-0.5,0.09-0.92,0.17-1.28c0.1-0.5,0.25-0.92,0.52-1.37c1.93-3.26,7.27-10.11,23.46-11.14l2.07-142.82
						c0,0,4.28-2.65,3.11-6.39c0,0-1.33-2.59-2.74-2.71c-1.27-0.1,1.05-0.98,1.05-0.98c0-0.03-0.07-0.85-5.08-1.97
						c0,0-0.41-0.91,1.67-0.96c2.09-0.04,3.85-0.91,1.13-1.28c0,0-1.37-0.98,0.84-1.52c0,0,2.89-0.93-3.08-1.58
						c0,0-2.24-0.19-2.59-0.72c-0.35-0.53,0.85-1.08,2.74-0.98c1.89,0.1,6.39-1.11,0.97-1.87c0,0-2.18-0.51,0.1-0.98
						c0,0,4.99-0.48-0.28-1.53c0,0-4.7-0.69-4.82-0.59c-0.12,0.09-2.87-0.82,0.29-1.52l5.99-0.13c0,0,2.72-0.68-0.84-1.05
						c-3.56-0.36-4.05-1.42-1.1-1.67c2.94-0.25,2.14-1.46-0.5-1.56c-2.65-0.1-11.7-1.73-0.9-2.19c0,0,8.66,0.44,1.26-1.44
						c0,0-3.91-0.76,0.16-1.38c4.08-0.63,0.56-1.62-2.67-1.83c-3.24-0.21-6.82-1.37-0.48-1.78c6.34-0.43,7.97,0.14,2.21-1.48
						c0,0-2.84-1.2,1.9-1.4c0,0,3.09-0.78-3.38-1.68c-6.48-0.9-3.76-1.93-0.33-2.19c0,0,7.35,0.09,3.09-0.98
						c-4.26-1.06-1.4-1.34-0.43-1.42c0.97-0.08,2.87-0.88-1.5-1.92c0,0-11.48-1.15-0.28-1.94c0,0,9.62,0.01,0.42-1.5
						c0,0-2.44-0.28,1.31-1.34c3.76-1.05,1.58-1.52-1.86-1.63c-3.44-0.11-7.72-1.6-0.9-2.29c0,0,6.82-0.12,3.33-0.9
						c-3.49-0.78-2.29-1.38-0.19-1.7c2.09-0.32-0.9-2.05-3.73-2.12c-2.84-0.06-4.85-1.47,0.03-1.64c4.87-0.17,8.1-0.48,2.93-1.28
						c0,0-3.21-0.39,0.18-1.19c3.39-0.81,1.4-1.74-0.58-1.63c-1.98,0.1-11.3-2.71-0.58-2.91c0,0,7.17,0.45,1.35-0.82
						c0,0-4.68-0.42,0.63-1.57c0,0,2.5-1.4-2.14-1.42c0,0-10.11-1.28-1.45-2.53c0,0,7.68,0.18,3.12-0.89
						c-4.56-1.06,0.65-2.12,0.65-2.12s2.86-1.08-2.44-1.07c0,0-1.39-0.18-1.24-0.72c0.15-0.53-3.48-0.03-3.6-1.05
						c-0.13-1.01,3.39-1.19,3.39-1.19l3.41-0.08c0,0,3.06,0.31-0.44-0.69c-3.49-0.99-0.24-1.28,0.13-1.5
						c0.37-0.23,2.22-1.17-0.72-1.37c-2.94-0.21-1.25-0.93-1.25-0.93s1.63-0.57-3.97-0.51c0,0-3.43-0.61,2.96-1.61
						c0,0,2.94-0.23,3.65,0.24c0,0,4.01,0.5-1.05-1.15c0,0-3.42-0.19-0.09-1.5c3.34-1.3-0.71-1.27-1.84-1.3
						c-1.13-0.03,0.19-0.7,0.19-0.7s-0.01-0.69-2.63-0.58c-2.62,0.1-1.58-1.62,1.08-1.52c2.68,0.1,5.71-0.44,4-0.95
						c-1.72-0.49-3.33-0.57-0.62-1.16c2.71-0.6-0.09-1.65-1.1-1.47c-1.01,0.18-1.24-0.62-0.23-0.85c1.01-0.23-0.51-1.16-2.85-0.74
						c-2.34,0.43-2.54-1.28-1.31-1.36c1.23-0.08,1.91-0.63,1.95-0.96c0.04-0.31,3.16,0.63,3.43,0.36c0.26-0.28,3.38,0.31-0.39-0.73
						c-3.76-1.05,0.93-1.26,0.93-1.26s1.42-1.2-1.14-1.15c-2.57,0.06-1.84-0.86-0.99-0.94c0.86-0.07,1.69-0.84-1.83-0.71
						c-3.52,0.13-3.93-1.52,0.56-1.24c4.5,0.28,7.2-0.7,3.82-1.37c-3.38-0.68,0.18-1.28,0.18-1.28s3.31-0.02,0.68-0.93
						c0,0-2.99-0.14-0.93-1.21c2.05-1.06-3.44-0.83-3.44-0.83s-2.9-0.69,0.61-1.24l4.81-0.1c0,0,0.62-0.98-0.51-1.38
						c-1.13-0.41-1.62-1.1-0.08-1.18c1.55-0.08,0.4-1.34-0.02-1.22c-0.43,0.11-1.2-0.83-0.19-1.17c0,0,0.63-0.66-2.2-0.54
						c-2.82,0.11-0.74-2.22,1.72-2.17c2.46,0.05,1.57-4.21,1.57-4.21s-0.45-0.79-2.35,0.05c0,0-2.07-0.06,2.77-3.11
						c0,0,3.08-3.06-2.13-4.17c-5.2-1.11-6.88-4.34,0.35-1.13c0,0,6.18,1.74,0.65-1.99c0,0-7.12-2.84,0.39-1.45
						c7.51,1.39-0.15-4.53-3.48-7.78c-3.33-3.24,3.83,1.68,3.83,1.68s5.12,4.43,4.09-1.21c0,0,0.05-2.72-1.21-4.41
						c-1.27-1.68,2.07-0.37,2.07-0.37s2.89,0.26,5.19-4.7c2.3-4.97,3.76-6.71,4.72-6.89c0.96-0.18,3.75,2.91,5.37,6.67
						c1.64,3.76,3.93,1.15,3.8-0.03c0,0,0.76-1.89,0.58,2.55c-0.17,4.43,0.71,5.75,1.54,4.56c0.83-1.19,1.89-1.7,2.16-1.48
						c0.27,0.21-1.6,2.86-1.6,2.86s-0.5,1.62,1.72,1.51c2.21-0.1,3.33-0.33,3.51,0.3c0.17,0.65-5.81,3.28-5.85,4.03
						c-0.03,0.75-0.64,2.2,2.35,2.29c2.99,0.1,2.98-0.91,3.62-0.66c0.64,0.25,2.35,0.43-2.35,2.78c0,0-0.36,0.86,0.66,1
						c1.01,0.14-4.7,2.29-4.96,2.99c-0.25,0.7,0.73,4.1,2.39,4.33c1.66,0.23,0.83,1.05,0.83,1.05s-1.33,0.03-1.6,0.31
						c-0.26,0.27-0.27,2.52-0.27,2.52s-0.56,1.24,0.83,1.37c1.39,0.13,0.26,2.24,2.87,1.6c0,0,1.78,1.03-2.17,1.43
						c-3.94,0.41-0.02,1.6-0.02,1.6s1.72,0.6-1.09,1.41c-2.81,0.81,1.95,0.86,1.95,0.86s1.12,0.14,0.93,1.37
						c0,0,0.92,0.51,1.77,0.49c0.86-0.02,2.32,0.59,0.29,0.8l-2.35,0.05c0,0-1.31,1.05-1.57,1.37c-0.26,0.33-1.37,0.01-1.37,0.01
						s-2.49-0.37,0.01,0.71c0,0,1.99,0.04,2.33-0.51c0.33-0.55,2.33,0.93,0.14,1.03c-2.19,0.1-1.23,1.41,0.14,1.08
						c1.38-0.33,3.68,0.71,2.88,1.29c-0.8,0.58,2.16,0.67,2.16,0.67s2.22,0.69-1.33,1.23l-3.81,0.18c0,0-3.68,0.3-0.81,1
						c0,0,2.34,0.21,2.55,0.78c0.21,0.56-2.56,1.04-2.56,1.04s-1.87,0.26,0.56,0.88l2.47,0.14c0,0,1.93,0.39,0.14,1.05
						c-1.78,0.66,2.42,0.76,2.42,0.76s2.09,0.67-0.54,1.01c0,0-3.8-0.16-4.26,0.17c-0.46,0.33-1.84,1.05-0.14,1.03
						c1.7-0.01,1.78,0.51,1.78,0.51s0.09,0.88-1.83,0.93c-1.92,0.04-1.77,1.2,0.27,1.17c2.05-0.02,2.35,0.32,2.35,0.32
						s0.76,1.11,1.55,1.1c0.78-0.02,1.31,0.48,1.31,0.48s0.61,0.9-1.06,0.93c-1.67,0.04-5.11,0.31-5.11,0.31s-2.3,0.7,0.83,1.11
						c3.14,0.43,1.32,1.58-0.11,1.63c-1.43,0.06-2.2,0.98-0.03,1.08c2.17,0.1,2.89,0.41,2.64,1.17c0,0-0.31,0.6,2.22,0.3
						c2.52-0.31,0.36,1.27-1.18,1.38c-1.55,0.11-3.71,0.06-3.81,0.26c-0.09,0.19-2.09,0.95-0.03,1.15c2.07,0.2,2.31,1.08,0.81,1.26
						c-1.5,0.18-1.88,0.41-1.88,0.41s-1.46,0.94,0.81,0.9c2.26-0.05,3.11,0.45,3.14,0.58c0.03,0.11,1.25,0.85,2.32,0.51
						c1.08-0.34,0.95,1.4-1.4,1.3c-2.34-0.09-4.76,0.43-4.74,0.55c0.03,0.12-1.93,0.73,0.05,1.08c1.98,0.35,2.48,0.64,2.48,0.79
						c0.01,0.14-0.26,0.75-1.6,0.94c-1.35,0.2-2.96,0.9-0.28,1.16c2.69,0.26,2.72,0.41,2.84,0.7c0.13,0.29,2.18,0.47,2.62,0.43
						c0.44-0.03,0.85,0.95-1.57,1.17c-2.44,0.23-6.11,1.41-3.68,1.63c2.42,0.22,1.87,1.27-0.56,1.42c0,0-1.3,0.17-1.07,0.59
						c0.23,0.41-2.37,0.76,0.34,0.88c0,0,4.13-0.31,4.79,0.71c0,0,1.6,0.23,1.93,0.51c0.33,0.29-1.55,0.9-2.51,1
						c-0.96,0.09-3.29,0.17-3.36,0.27c-0.07,0.1-3.06,0.78-0.39,1.27c2.67,0.48,2.41,0.98,2.41,1.1c0,0.13-1.39,0.5-2.44,0.54
						c-1.06,0.05-3.3,1.45,0.79,1.53c0,0,2.09,0.15,2.46,0.39c0.38,0.24,2.34,0.1,2.42,0.14c0.08,0.04,2.3,0.59-0.96,1.15
						c0,0-3.49,0.2-3.49,0.35c0.01,0.14-3.27,1.35-0.88,1.59c2.39,0.24,2.61,1.12-0.24,1.36c-2.85,0.23,0.16,1.28,0.65,1.27
						c0.49-0.01,1.06,0.72,4.06,0.48c3-0.24-0.17,1.35-1.27,1.65c0,0-2.22,0.61-4.17,0.51c0,0-1.89,1.2-0.13,1.01
						c1.77-0.19,2.72,0.48,2.75,0.8c0.03,0.33,0.07,0.81-0.33,0.92c-0.39,0.11-3.16-0.2-3.26,0.49c0,0-1.63,0.73,0.04,0.89
						c1.68,0.16,3.93-0.31,4.6,0.09c0.67,0.4,1.73,0.45,1.73,0.45s1.32,0.32,0.7,0.58c-0.61,0.26-1.82,0.36-1.82,0.36
						s-0.86,0.9-2.73,0.95c-1.87,0.04-3.19,1.33-0.24,1.26c2.95-0.06,0.68,1.48-0.36,1.58c-1.03,0.09-4.67,1.4-0.98,1.22
						c3.68-0.17,5.74,0.35,5.81,0.35c0.08-0.01,2.55,0.58-1.3,1.38c-3.85,0.8-4.75,0.74-4.77,1.06c0,0-2.24,1.13-0.01,0.88
						c2.24-0.25,2.85,0.95,2.85,0.95s0.73,0.44-2.83,0.91c-3.56,0.47-0.49,1.17,1.05,1.06c1.55-0.11,4.56,0.14,4.56,0.23
						c0,0,2.82,0.45-0.01,0.98c-2.82,0.52-4.51,0.81-4.51,0.81s-3.73,1.58-0.53,1.73c3.2,0.15,2.71,1.1-0.21,1.58
						c-2.92,0.48-2,0.95-0.67,0.9c1.33-0.06,5.3-0.63,5.83-0.01c0.53,0.63,1.99,1.04-1.52,1.58c-3.51,0.54-4.06,0.9-4.06,0.9
						s-2.77,1.22,0.11,1.47c2.89,0.26,3.86,1.02,1.34,1.57c0,0-1.72,0.04-1.74,0.13c-0.03,0.1-3.71,0.55,0.01,0.71
						c0,0,4.15-0.24,4.52,0.08c0,0,3.37,0.84-0.21,1.38c-3.57,0.54-4.53,0.76-4.53,0.96c0,0.2-2.16,1.25-0.14,1.58
						c2.03,0.33,2.07,0.99-0.18,1.68c-2.25,0.69-0.48,0.85,0.13,1.23c0.6,0.38,1.47-0.26,1.96-0.34c0.49-0.09,2.66,0.14,0.67,1.37
						c-1.99,1.22-3.52,1.13-3.52,1.13s-0.98,0.34-0.72,0.86c0,0,0.07,1.97,0.9,0.7c0.83-1.28,0.34,1.86-0.03,1.9
						c-0.37,0.03-1.18,0.17-0.56,0.63c0.63,0.45,2.27,0.07,2.54,0.36c0.28,0.29,1.01,0.84-0.61,1.19c0,0-0.96,0.1-1.06,0.71
						c0,0,0.13,0.26-1.45,0.1c0,0-0.33,0.73-1.42,0.87c-1.08,0.14,1.08,1.08,1.08,1.08s0.55,0.36,0.19,0.64
						c-0.13,0.11-0.39,0.2-0.83,0.26c-1.67,0.23-1.99,2.69-1.99,2.69s-0.08,2.19,0.25,2.88c0.2,0.4,0.86,0.85,1.24,1.69
						c0.1,0.23,0.18,0.48,0.23,0.76c0.18,1.12,0.27,9.18,0.27,9.18l0.11,4.85l1.43,18.23l-0.12,14.03l-0.22,6.14l-1.59,81.68
						l-0.22,9.63c0,0,24.9,1.93,25.17,14.58"/>
					<path class="st7" d="M179.98,378c0.22,0.83,0.55,1.63,0.94,2.39c0.39,0.76,0.85,1.47,1.39,2.12c0.54,0.64,1.14,1.23,1.82,1.7
						c0.34,0.23,0.68,0.45,1.05,0.64l1.14,0.59c1.53,0.77,3.07,1.55,4.62,2.18c0.4,0.16,0.73,0.27,1.16,0.39l1.24,0.36l2.48,0.69
						c1.65,0.44,3.32,0.87,4.97,1.24c0.84,0.19,1.64,0.35,2.46,0.45l2.55,0.29c3.4,0.37,6.82,0.69,10.22,0.81
						c0.85,0.03,1.7,0.05,2.54,0.05c0.84-0.01,1.66-0.03,2.53-0.09c1.71-0.09,3.43-0.21,5.14-0.33c1.69-0.12,3.46-0.23,5.03-0.49
						l5.03-1.08l2.51-0.57c0.4-0.1,0.85-0.2,1.2-0.31l1.19-0.43c1.61-0.59,3.22-1.2,4.75-1.9c0.38-0.17,0.76-0.36,1.09-0.57
						c0.14-0.1,0.32-0.23,0.49-0.36l0.5-0.4c0.67-0.53,1.32-1.09,1.94-1.66c0.31-0.3,0.61-0.57,0.79-0.93
						c0.21-0.37,0.4-0.75,0.57-1.14c0.34-0.78,0.63-1.6,0.63-2.46c0.1,0.86-0.1,1.74-0.36,2.57c-0.13,0.41-0.3,0.82-0.47,1.22
						c-0.18,0.43-0.5,0.78-0.78,1.11c-0.58,0.66-1.21,1.26-1.84,1.85l-0.48,0.44c-0.16,0.15-0.31,0.29-0.52,0.45
						c-0.38,0.28-0.76,0.51-1.15,0.72c-1.54,0.84-3.12,1.54-4.71,2.23c-0.41,0.17-0.78,0.34-1.21,0.51
						c-0.47,0.16-0.86,0.27-1.29,0.4l-2.51,0.68c-1.67,0.44-3.33,0.87-5.03,1.27c-1.82,0.35-3.5,0.48-5.23,0.66
						c-1.72,0.16-3.45,0.27-5.17,0.39c-0.85,0.06-1.75,0.1-2.63,0.11c-0.88,0.01-1.75,0-2.62-0.03c-3.48-0.15-6.93-0.48-10.36-0.92
						l-2.57-0.36c-0.88-0.13-1.76-0.33-2.6-0.54c-1.7-0.42-3.35-0.92-5.01-1.44l-2.47-0.8l-1.23-0.41
						c-0.39-0.12-0.87-0.33-1.26-0.51c-1.6-0.76-3.09-1.62-4.58-2.51l-1.11-0.68c-0.37-0.23-0.75-0.51-1.09-0.79
						c-0.7-0.57-1.29-1.24-1.79-1.97C180.9,381.37,180.25,379.71,179.98,378"/>
					<path class="st6" d="M387.15,157.24c-0.04,0.02-0.07,0.04-0.11,0.06c-0.14-0.01-0.3,0.01-0.45,0.1
						c-0.65,0.37-1.24,0.78-1.8,1.22c-6.89,4.22-12.71,9.83-19.06,14.83c-7.87,6.19-16.8,10.29-26.7,11.93
						c-9.93,1.65-19.97,1.07-29.85-0.65c-4.64-0.8-9.2-1.6-13.91-0.97c-4.61,0.62-8.98,2.32-13.29,3.98c-1,0.39-0.57,2.02,0.45,1.63
						c1.13-0.44,2.27-0.87,3.42-1.3c0.05,0.02,0.12,0.03,0.18,0.04c0.63-0.14,1.31-0.22,2.04-0.22c1.49,0,2.76,0.33,3.84,0.88
						c0.4,0.1,0.78,0.22,1.14,0.37c0.53,0.17,1.04,0.37,1.5,0.63c0.48,0.14,0.96,0.29,1.44,0.42c2.86,0.73,5.74,1.35,8.65,1.87
						c5.63,1,11.3,1.57,17.01,1.79c0.05,0,0.08-0.02,0.12-0.02c17.27,1.97,39.18-3.26,51.32-16.26c0.03-0.03,0.04-0.06,0.06-0.1
						c4.97-5.18,6.83-12.97,12.5-17.39c0.77-0.47,1.55-0.95,2.35-1.38C388.96,158.18,388.11,156.72,387.15,157.24"/>
					<path class="st6" d="M40.72,155.76c0.04,0.02,0.07,0.04,0.11,0.07c0.15-0.01,0.3,0.01,0.46,0.1c0.66,0.38,1.27,0.8,1.85,1.25
						c7.05,4.32,13.01,10.07,19.51,15.18c8.06,6.34,17.2,10.53,27.33,12.21c10.16,1.68,20.45,1.09,30.55-0.66
						c4.75-0.82,9.41-1.64,14.24-0.99c4.72,0.64,9.19,2.37,13.6,4.07c1.03,0.4,0.58,2.07-0.46,1.67c-1.16-0.45-2.32-0.9-3.5-1.33
						c-0.05,0.02-0.12,0.03-0.19,0.04c-0.65-0.15-1.34-0.23-2.09-0.23c-1.53,0-2.83,0.34-3.93,0.9c-0.41,0.1-0.8,0.23-1.17,0.38
						c-0.55,0.17-1.07,0.38-1.53,0.65c-0.49,0.15-0.98,0.3-1.47,0.43c-2.93,0.75-5.88,1.39-8.85,1.91
						c-5.76,1.02-11.57,1.6-17.41,1.83c-0.05,0-0.08-0.02-0.13-0.02c-17.68,2.02-40.1-3.33-52.54-16.64
						c-0.03-0.03-0.04-0.07-0.06-0.1c-5.09-5.31-6.99-13.28-12.8-17.81c-0.79-0.48-1.58-0.97-2.4-1.42
						C38.86,156.72,39.74,155.23,40.72,155.76"/>
					<path class="st8" d="M392.62,172.65c0,0-6.45-1.59-7.48-2.19c-1.03-0.6-6.88-3.42-6.88-3.42s9.34,5.24,9.85,5.24"/>
					<path class="st9" d="M392.62,172.65c0,0-6.45-1.59-7.48-2.19c-1.03-0.6-6.88-3.42-6.88-3.42s9.34,5.24,9.85,5.24"/>
					<path class="st8" d="M383.19,172.1l-6.72-4.24c0,0,6.06,6.65,6.92,6.5"/>
					<path class="st9" d="M383.19,172.1l-6.72-4.24c0,0,6.06,6.65,6.92,6.5"/>
					<path class="st9" d="M384.22,174.58c0,0-8.11-6.85-8.36-7.66c-0.25-0.81,3.81,7.56,5.25,7.78"/>
					<path class="st9" d="M371.63,169.81c0,0,9.5,5.57,13.17,5.87"/>
					<path class="st9" d="M380.42,175.01c0,0-8.55-4.18-8.67-4.69c-0.12-0.51,8.78,6.81,15.55,8.04"/>
					<path class="st9" d="M377.8,175.37c0,0-6.44-4.79-6.48-4.97c-0.04-0.18,6.75,6.08,6.75,6.08"/>
					<path class="st9" d="M380.27,177.46c0,0-8.21-5.12-8.82-6.53c-0.62-1.41,5.9,8.2,11.03,9.65"/>
					<path class="st9" d="M370.72,170.03c0,0,5.74,10.6,5.67,10.56"/>
					<path class="st9" d="M378.19,179.35c-0.07-0.04-9.02-6.16-9.02-6.16s0.19,0.13,0.51,0.35c1.66,1.13,6.87,4.57,7.76,4.23"/>
					<path class="st9" d="M386.47,183.6c0,0-16.65-7.46-17.56-9.87"/>
					<path class="st9" d="M379.28,181.56c0,0-8-4.58-9.05-6.48c-1.06-1.9,6.84,5.71,6.84,5.71"/>
					<path class="st9" d="M381.83,184.71c0,0-6.81-3.74-7.11-4.53c0,0-6.83-6.69-6.19-6.84"/>
					<path class="st9" d="M385.48,187.46c0,0-15.3-5.67-16.66-8.77l9.29,5.19"/>
					<path class="st9" d="M377.37,183.02l-8.7-4.97c0,0,6.17,7.28,8.22,8.29"/>
					<path class="st9" d="M380.04,191.93l-13.46-14.96c0,0,8.41,10.74,8.3,11.35"/>
					<path class="st9" d="M365.84,177.15c0,0,6.32,11.82,5.47,11.94c-0.85,0.12-7.77-8.34-7.77-8.34s10.84,8.94,11.78,8.55"/>
					<path class="st9" d="M381.11,196.42c0,0-17.49-12.79-17.56-15.67"/>
					<path class="st9" d="M372.74,191.25l-8.81-9.54c0,0,5.96,9.06,6.67,8.22"/>
					<path class="st9" d="M375.48,197.27c0,0-3.21-3.81-6.42-7.75c-3.39-4.16-6.77-8.46-6.34-8.57"/>
					<path class="st9" d="M372.69,192.68c0,0-12.2-6.76-12.66-9.4c0,0,7.45,6.32,8.24,6.28"/>
					<path class="st9" d="M372.07,193.18c0,0-12.19-9.76-11.94-10.57c0.25-0.81,15.4,20.17,15.57,19.79"/>
					<path class="st9" d="M356.5,186.08c0,0,9.17,7.26,9.58,6.76"/>
					<path class="st9" d="M369.82,196.76c0,0-13.02-8.71-12.77-9.89c0.24-1.18,10.93,11.94,14.34,12.38"/>
					<path class="st9" d="M365.59,198.87c0,0-4.64-15.06-5.8-14.79"/>
					<path class="st9" d="M364.82,197.81c-0.38,0.19-7.77-10.94-7.77-10.94l3.09,10.39"/>
					<path class="st9" d="M366.72,203.61c0,0-8.65-13.01-9.47-15.78c-0.82-2.77,4.54,11.62,3.71,12.16"/>
					<path class="st9" d="M360.17,201.42c0,0-2.59-13.77-3.12-14.55c-0.54-0.79,1.26,9.67,1.47,10.2"/>
					<path class="st9" d="M372.52,206.33c0,0-19.16-16.85-18.78-18.19"/>
					<path class="st9" d="M364.07,202.07c0,0-11.69-12.37-11.44-13.15"/>
					<path class="st9" d="M368.52,202.76c0,0-13.57-9.42-15.21-13.78"/>
					<path class="st9" d="M363.64,203.93c0,0-10-13.61-10.16-14.28c-0.09-0.37,2.86,5.33,5.48,10.57c2.16,4.31,4.1,8.32,3.96,8.39"
						/>
					<path class="st9" d="M365.45,211.51c0,0-16.99-19.85-16-21.93c0,0,10.41,10.17,9.51,10.64"/>
					<path class="st9" d="M359.5,212.35c0,0-6.72-20.57-8.87-21.14c0,0,6.12,15.96,7.59,15.78"/>
					<path class="st9" d="M353.36,202.65c0,0-4.29-11.93-3.08-12.25"/>
					<path class="st9" d="M353.5,204.7c0,0-5.12-13.76-4.05-15.11c0,0-0.88,3.26-0.32,5.64"/>
					<path class="st9" d="M354.4,209.9c0,0-7.98-19.1-9-17.9c0,0,6.23,14.73,6.4,14.35"/>
					<path class="st9" d="M357.3,215.88c0,0-10.8-19.6-16.31-23.24c0,0,9.69,16.4,8.74,17.55"/>
					<path class="st9" d="M356.85,213.98c0,0-11.57-18.77-14.49-19.64"/>
					<path class="st9" d="M348.64,215.53c0,0-5.11-23.96-3.51-24.59"/>
					<path class="st9" d="M345.78,212.71c0,0-2.73-16.96-4.33-18.15c-1.6-1.19,3.12,14.52,2.29,14.72"/>
					<path class="st9" d="M342.67,211.78c0,0,0.53-16.13-1.48-18.32c-2.01-2.19,3.14,24.51,2.53,25.99"/>
					<path class="st9" d="M335.52,195.32c0,0,3.96,5.21,4.07,6.05"/>
					<path class="st9" d="M341.27,205.53c0,0-5.68-10.21-5.64-12.65c0.03-2.44,6.34,18.73,5.88,19.42"/>
					<path class="st9" d="M338.68,205.69c0,0-3.26-12.93-3.74-13.48c-0.48-0.55,5.75,23.38,5.15,23.78"/>
					<path class="st9" d="M337.06,210.27c0,0-1.82-13.5-1.51-14.96c0.3-1.47-2.16,15.69-1.88,16.54"/>
					<path class="st9" d="M336.45,211.18c0,0-0.6-14.9-0.71-16.6"/>
					<path class="st9" d="M330.87,193.84c3.97,8.22,5.07,27.47,5.07,27.47"/>
					<path class="st9" d="M330.83,218.64l0.21-23.07c0,0-2.02,13.42-1.7,14.76"/>
					<path class="st9" d="M328.63,222.22c0,0-3.11-21.82-1.69-27.26c1.41-5.44-2.98,13.2-3.22,13.26"/>
					<path class="st9" d="M327.65,195.8l5.03,13.36c0.65-1.66-1.76-13.25-1.76-13.25c4.26,3.9,5.71,22.48,5.71,22.48"/>
					<path class="st9" d="M326.93,194.96c0,0,5.13,6.99,5.25,7.77"/>
					<path class="st9" d="M322.83,194.27c0,0,5.62,12.45,4.97,13.85"/>
					<path class="st9" d="M326.23,208.5c0,0-2.37-13.23-3.62-13.35c-1.25-0.12,3.41,12.46,2.47,13.63"/>
					<path class="st9" d="M324.57,214.02c0,0-1.53-16.64-1.75-17.76c-0.22-1.11,0.38,14.58,0.1,15.23
						c-0.28,0.65,0.02,7.41-0.85,7.45"/>
					<path class="st9" d="M323.71,212.89c0,0-2.53-13.25-4.44-18.62"/>
					<path class="st9" d="M317.13,220.63l1.8-27.73c0,0,0.94,20.53-0.33,22.54"/>
					<path class="st9" d="M319.95,214.79c0,0,3.58-20.77,2.88-21.57"/>
					<path class="st9" d="M321.42,209.64c0,0-2.54-11.1-2.35-13.24"/>
					<path class="st9" d="M315.65,214.4c0,0,5.56-18.68,3.62-20.13c0,0-7.68,20.35-10,23.07"/>
					<path class="st9" d="M316.04,210.93c0,0-1.05-17.22-1.95-17.33c0,0,4.54,12.48,4.86,12.3"/>
					<path class="st9" d="M313.51,211.7c0,0,6.18-17.52,5.42-18.8"/>
					<path class="st9" d="M311.93,209.45c0,0,3.11-14.83,2.17-15.86c-0.94-1.03-4.38,17.22-4.38,17.22"/>
					<path class="st9" d="M309.64,213.08c0,0,5.07-15.8,4.23-18.22"/>
					<path class="st9" d="M303.39,217.32c0,0,10.18-17.6,10.34-25.48"/>
					<path class="st9" d="M310.46,191.22c1.65,2.87-3.68,17.58-3.68,17.58"/>
					<path class="st9" d="M310.58,190.01c0.84,2.21-6.97,21.97-6.97,21.97"/>
					<path class="st9" d="M304.18,204.48c0,0,11.19-10.03,10.26-12.8c-0.79-2.35-0.81,17.91-0.81,17.91"/>
					<path class="st9" d="M298.23,214.41c0,0,13.4-19.4,11.75-23.75"/>
					<path class="st9" d="M305.29,209.15c0,0,6.14-17.4,5.03-18.84"/>
					<path class="st9" d="M311.76,199.05c0,0-1.31-4.95-1.71-5.3c-0.4-0.35,1.28,7.13,0.95,7.42"/>
					<path class="st9" d="M308.38,205.23c-0.32-0.24,3.7-13.09,2.45-14.78"/>
					<path class="st9" d="M306.05,189.05c1.83,4.78-2.32,20.47-2.32,20.47"/>
					<path class="st9" d="M303.48,205.34c0,0,3.34-11.47,2.16-14.77"/>
					<path class="st9" d="M297.65,207.8c0,0,8.62-13.51,7.79-16.32"/>
					<path class="st9" d="M298.84,204.48c0,0,5.94-14.89,7.08-14.7"/>
					<path class="st9" d="M302.27,201.81c0,0,7.78-4.27,7.84-10.91"/>
					<path class="st9" d="M291.85,209.97c0,0,11.18-7.11,10.33-22.34"/>
					<path class="st9" d="M298.22,201.22c0,0,7.05-8.28,6.79-8.67"/>
					<path class="st9" d="M298.25,199.98c0,0,3.18-8.91,3.39-9.89"/>
					<path class="st9" d="M291.97,205.79c0,0,11.93-15.29,10.73-19.05c0,0-12.25,17.71-15.86,19.09"/>
					<path class="st9" d="M301.32,190.28c0,0-3.32,9.22-6.53,11.4"/>
					<path class="st9" d="M294.58,199.58c0,0,8.23-11.57,7.65-12.01"/>
					<path class="st9" d="M297.55,193.9c0,0,1.71-5.18,1.28-6.47c-0.43-1.28-1.37,8.26-2.39,8.44"/>
					<path class="st9" d="M293.15,197.77c0,0,5.78-7.44,5.06-9.24c0,0-5.47,11.06-10.18,14.75"/>
					<path class="st9" d="M289.26,200.4c0,0,9.27-10.48,8.95-11.87c0,0-5.59,7.64-6.23,7.56"/>
					<path class="st9" d="M282.04,202.24c0,0,16.58-11.25,17.08-15.82"/>
					<path class="st9" d="M283.5,203.86c0,0,10.9-9.17,11.1-17.82c0,0-0.12,0.3-0.32,0.8c-1.06,2.65-4.51,10.96-5.9,11.46"/>
					<path class="st9" d="M293.54,187.16c0,0-3.65,8.5-6.43,10.35"/>
					<path class="st9" d="M281.79,200.35c0,0,12.89-11.83,12.46-14.06"/>
					<path class="st9" d="M278.48,200.38c0,0,13.75-9.63,15.71-13.38c1.95-3.75-4.94,7.98-7.3,8.72"/>
					<path class="st10" d="M229.32,223.45c-1.45-0.59-2.47-2.01-2.47-3.67c0-2.14,1.69-3.89,3.82-3.97"/>
					<path class="st9" d="M35.11,170.72c0,0,6.6-1.63,7.65-2.24c1.05-0.61,7.05-3.5,7.05-3.5s-9.56,5.36-10.08,5.36"/>
					<path class="st9" d="M44.77,170.15l6.88-4.34c0,0-6.2,6.81-7.09,6.65"/>
					<path class="st9" d="M43.71,172.69c0,0,8.3-7.01,8.56-7.84c0.26-0.83-3.9,7.74-5.38,7.96"/>
					<path class="st9" d="M56.6,167.81c0,0-9.72,5.7-13.48,6.01"/>
					<path class="st9" d="M47.61,173.13c0,0,8.75-4.28,8.87-4.8c0.12-0.52-8.99,6.97-15.92,8.23"/>
					<path class="st9" d="M50.29,173.49c0,0,6.59-4.9,6.63-5.09c0.04-0.19-6.91,6.23-6.91,6.23"/>
					<path class="st9" d="M47.76,175.64c0,0,8.4-5.24,9.03-6.69c0.63-1.44-6.04,8.39-11.29,9.88"/>
					<path class="st9" d="M57.53,168.03c0,0-5.87,10.85-5.81,10.81"/>
					<path class="st9" d="M49.89,177.57c0.07-0.04,9.23-6.31,9.23-6.31s-0.19,0.13-0.52,0.36c-1.7,1.15-7.03,4.68-7.94,4.33"/>
					<path class="st9" d="M41.42,181.92c0,0,17.04-7.63,17.98-10.1"/>
					<path class="st9" d="M48.77,179.83c0,0,8.18-4.69,9.27-6.63c1.08-1.94-7,5.85-7,5.85"/>
					<path class="st9" d="M46.16,183.05c0,0,6.97-3.83,7.27-4.64c0,0,7-6.84,6.34-7"/>
					<path class="st9" d="M42.42,185.87c0,0,15.66-5.81,17.05-8.98l-9.51,5.32"/>
					<path class="st9" d="M50.72,181.33l8.9-5.09c0,0-6.31,7.45-8.41,8.49"/>
					<path class="st9" d="M48,190.44l13.77-15.31c0,0-8.61,11-8.5,11.62"/>
					<path class="st9" d="M62.53,175.32c0,0-6.47,12.1-5.6,12.22c0.87,0.12,7.95-8.53,7.95-8.53s-11.1,9.15-12.06,8.75"/>
					<path class="st9" d="M46.9,195.05c0,0,17.9-13.09,17.98-16.04"/>
					<path class="st9" d="M55.46,189.75l9.02-9.77c0,0-6.1,9.27-6.83,8.41"/>
					<path class="st9" d="M52.67,195.91c0,0,3.29-3.9,6.57-7.93c3.47-4.26,6.93-8.66,6.49-8.77"/>
					<path class="st9" d="M55.51,191.21c0,0,12.49-6.92,12.96-9.62c0,0-7.63,6.47-8.43,6.43"/>
					<path class="st9" d="M56.16,191.73c0,0,12.47-9.99,12.22-10.82c-0.25-0.83-15.76,20.64-15.94,20.26"/>
					<path class="st9" d="M72.09,184.46c0,0-9.39,7.43-9.8,6.92"/>
					<path class="st9" d="M58.46,195.39c0,0,13.33-8.92,13.08-10.13c-0.25-1.21-11.19,12.22-14.68,12.67"/>
					<path class="st9" d="M62.78,197.56c0,0,4.75-15.42,5.94-15.14"/>
					<path class="st9" d="M63.58,196.47c0.39,0.19,7.96-11.2,7.96-11.2l-3.17,10.64"/>
					<path class="st9" d="M61.63,202.4c0,0,8.86-13.32,9.69-16.16c0.84-2.84-4.65,11.9-3.79,12.44"/>
					<path class="st9" d="M68.34,200.16c0,0,2.65-14.09,3.2-14.9c0.55-0.8-1.29,9.89-1.51,10.44"/>
					<path class="st9" d="M55.69,205.18c0,0,19.61-17.25,19.22-18.62"/>
					<path class="st9" d="M64.34,200.83c0,0,11.97-12.66,11.71-13.46"/>
					<path class="st9" d="M59.78,201.54c0,0,13.89-9.64,15.57-14.11"/>
					<path class="st9" d="M64.78,202.73c0,0,10.24-13.93,10.4-14.61c0.09-0.38-2.92,5.45-5.61,10.82c-2.21,4.42-4.2,8.52-4.06,8.59"
						/>
					<path class="st9" d="M62.93,210.5c0,0,17.39-20.32,16.37-22.45c0,0-10.66,10.41-9.73,10.89"/>
					<path class="st9" d="M69.02,211.35c0,0,6.88-21.06,9.08-21.64c0,0-6.27,16.34-7.77,16.15"/>
					<path class="st9" d="M75.31,201.42c0,0,4.4-12.21,3.15-12.53"/>
					<path class="st9" d="M75.16,203.52c0,0,5.25-14.08,4.14-15.47c0,0,0.9,3.34,0.32,5.77"/>
					<path class="st9" d="M74.24,208.85c0,0,8.17-19.55,9.22-18.32c0,0-6.37,15.07-6.55,14.69"/>
					<path class="st9" d="M71.27,214.96c0,0,11.06-20.06,16.7-23.79c0,0-9.92,16.79-8.94,17.96"/>
					<path class="st9" d="M71.73,213.02c0,0,11.84-19.21,14.83-20.11"/>
					<path class="st9" d="M80.13,214.6c0,0,5.23-24.52,3.59-25.17"/>
					<path class="st9" d="M83.06,211.72c0,0,2.8-17.36,4.43-18.58c1.64-1.22-3.19,14.87-2.34,15.07"/>
					<path class="st9" d="M86.24,210.77c0,0-0.54-16.51,1.52-18.75c2.06-2.24-3.21,25.09-2.59,26.6"/>
					<path class="st9" d="M93.57,193.92c0,0-4.05,5.34-4.17,6.2"/>
					<path class="st9" d="M87.68,204.37c0,0,5.81-10.45,5.78-12.94c-0.03-2.49-6.49,19.17-6.02,19.88"/>
					<path class="st9" d="M90.33,204.53c0,0,3.34-13.23,3.83-13.8c0.49-0.57-5.89,23.93-5.27,24.34"/>
					<path class="st9" d="M91.99,209.23c0,0,1.86-13.82,1.55-15.32s2.22,16.06,1.92,16.93"/>
					<path class="st9" d="M92.62,210.16c0,0,0.61-15.25,0.73-16.99"/>
					<path class="st9" d="M98.33,192.4c-4.07,8.41-5.19,28.12-5.19,28.12"/>
					<path class="st9" d="M97.44,217.2l-0.21-23.03c0,0,2.07,13.73,1.74,15.11"/>
					<path class="st9" d="M100.63,221.46c0,0,3.18-22.34,1.73-27.9s3.05,13.51,3.3,13.57"/>
					<path class="st9" d="M101.62,194.41l-5.15,13.68c-0.67-1.7,1.8-13.57,1.8-13.57c-4.36,3.99-5.84,23.01-5.84,23.01"/>
					<path class="st9" d="M102.36,193.55c0,0-5.25,7.15-5.38,7.96"/>
					<path class="st9" d="M106.56,192.84c0,0-5.76,12.74-5.09,14.18"/>
					<path class="st9" d="M103.08,207.41c0,0,2.42-13.54,3.71-13.66c1.28-0.12-3.49,12.76-2.52,13.96"/>
					<path class="st9" d="M104.78,213.06c0,0,1.57-17.04,1.79-18.18c0.22-1.14-0.39,14.93-0.1,15.59c0.29,0.67-0.02,7.59,0.87,7.63"
						/>
					<path class="st9" d="M105.66,211.91c0,0,2.59-13.57,4.55-19.06"/>
					<path class="st9" d="M112.39,219.83l-1.85-28.39c0,0-0.96,21.01,0.33,23.08"/>
					<path class="st9" d="M109.51,213.85c0,0-3.67-21.26-2.95-22.08"/>
					<path class="st9" d="M108,208.58c0,0,2.6-11.36,2.41-13.55"/>
					<path class="st9" d="M113.91,213.45c0,0-5.69-19.13-3.7-20.61c0,0,7.86,20.83,10.24,23.62"/>
					<path class="st9" d="M113.51,209.9c0,0,1.07-17.62,1.99-17.74c0,0-4.65,12.77-4.97,12.59"/>
					<path class="st9" d="M116.09,210.68c0,0-6.33-17.94-5.55-19.24"/>
					<path class="st9" d="M117.72,208.38c0,0-3.18-15.18-2.22-16.23c0.97-1.05,4.48,17.62,4.48,17.62"/>
					<path class="st9" d="M120.06,212.1c0,0-5.19-16.17-4.33-18.65"/>
					<path class="st9" d="M126.46,216.44c0,0-10.43-18.02-10.59-26.08"/>
					<path class="st9" d="M119.22,189.72c-1.69,2.93,3.77,17.99,3.77,17.99"/>
					<path class="st9" d="M119.1,188.48c-0.86,2.26,7.14,22.49,7.14,22.49"/>
					<path class="st9" d="M125.65,203.3c0,0-11.45-10.26-10.5-13.11c0.81-2.4,0.83,18.34,0.83,18.34"/>
					<path class="st9" d="M131.74,213.46c0,0-13.71-19.85-12.02-24.31"/>
					<path class="st9" d="M124.51,208.08c0,0-6.29-17.81-5.15-19.28"/>
					<path class="st9" d="M117.89,197.74c0,0,1.34-5.06,1.75-5.42c0.41-0.36-1.31,7.3-0.97,7.6"/>
					<path class="st9" d="M121.35,204.07c0.33-0.25-3.79-13.4-2.51-15.13"/>
					<path class="st9" d="M123.74,187.5c-1.87,4.9,2.37,20.96,2.37,20.96"/>
					<path class="st9" d="M126.36,204.17c0,0-3.42-11.74-2.21-15.12"/>
					<path class="st9" d="M132.34,206.69c0,0-8.82-13.83-7.97-16.7"/>
					<path class="st9" d="M131.12,203.29c0,0-6.08-15.24-7.25-15.05"/>
					<path class="st9" d="M135.18,196.3c0,0-7.97-4.37-8.02-11.17"/>
					<path class="st9" d="M138.28,208.92c0,0-11.44-7.28-10.57-22.87"/>
					<path class="st9" d="M131.75,199.96c0,0-7.21-8.47-6.95-8.88"/>
					<path class="st9" d="M131.72,198.69c0,0-3.26-9.12-3.47-10.12"/>
					<path class="st9" d="M138.15,204.63c0,0-12.21-15.65-10.99-19.51c0,0,12.54,18.13,16.24,19.55"/>
					<path class="st9" d="M128.58,188.77c0,0,3.4,9.44,6.69,11.67"/>
					<path class="st9" d="M135.48,198.28c0,0-8.43-11.84-7.83-12.29"/>
					<path class="st9" d="M132.43,192.46c0,0-1.75-5.3-1.32-6.62c0.44-1.31,1.4,8.45,2.45,8.64"/>
					<path class="st9" d="M136.94,196.42c0,0-5.92-7.62-5.18-9.45c0,0,5.6,11.32,10.42,15.1"/>
					<path class="st9" d="M140.92,199.12c0,0-9.49-10.73-9.16-12.15c0,0,5.73,7.82,6.37,7.74"/>
					<path class="st9" d="M148.31,201c0,0-16.98-11.52-17.48-16.19"/>
					<path class="st9" d="M146.82,202.66c0,0-11.16-9.38-11.36-18.24c0,0,0.12,0.31,0.33,0.82c1.09,2.71,4.61,11.21,6.04,11.73"/>
					<path class="st9" d="M136.54,185.57c0,0,3.74,8.71,6.58,10.59"/>
					<path class="st9" d="M148.57,199.07c0,0-13.2-12.11-12.76-14.39"/>
					<path class="st9" d="M151.96,199.1c0,0-14.08-9.85-16.08-13.69c-2-3.84,5.05,8.16,7.48,8.92"/>
					<path class="st11" d="M206.99,396.95c0.09,0.01,0.17,0.03,0.26,0.04c-0.32,2.18-0.65,4.36-0.97,6.54
						c-0.08,0.54-0.12,0.88-0.13,1.02c-0.01,0.14,0.04,0.27,0.13,0.38s0.28,0.21,0.55,0.3l0.25,0.08c-0.01,0.1-0.03,0.19-0.04,0.29
						c-0.97-0.3-1.93-0.65-2.86-1.05l0.05-0.27c0.07,0.03,0.14,0.06,0.2,0.08c0.3,0.12,0.5,0.16,0.6,0.11
						c0.1-0.05,0.17-0.13,0.21-0.23c0.03-0.11,0.09-0.44,0.18-0.99c0.23-1.43,0.46-2.85,0.69-4.28c0.09-0.54,0.13-0.87,0.14-0.99
						c0.01-0.12-0.03-0.23-0.1-0.33c-0.07-0.1-0.25-0.18-0.53-0.23c-0.08-0.02-0.17-0.03-0.25-0.05c0.02-0.09,0.03-0.18,0.05-0.27
						C206.09,397.23,206.62,397.17,206.99,396.95"/>
					<path class="st11" d="M213.08,402.13c0.56,0.1,1.04,0.37,1.46,0.83c0.42,0.46,0.63,1.03,0.62,1.72
						c-0.02,0.8-0.3,1.42-0.87,1.83c-0.57,0.41-1.27,0.57-2.06,0.46c-0.82-0.11-1.48-0.47-1.97-1.04c-0.49-0.57-0.69-1.19-0.62-1.87
						c0.06-0.59,0.3-1.06,0.7-1.42c0.4-0.36,0.93-0.57,1.58-0.63c-0.51-0.2-0.91-0.53-1.2-0.97c-0.29-0.44-0.4-0.93-0.35-1.46
						c0.06-0.65,0.33-1.15,0.79-1.53c0.46-0.37,1.01-0.55,1.65-0.51c0.59,0.03,1.1,0.26,1.55,0.7c0.45,0.43,0.67,1,0.65,1.7
						c-0.01,0.56-0.18,1.03-0.5,1.42C214.18,401.76,213.71,402.02,213.08,402.13 M210.72,404.17c-0.04,0.51-0.03,0.91,0.04,1.22
						c0.07,0.31,0.23,0.59,0.48,0.82c0.25,0.24,0.58,0.39,0.97,0.44c0.51,0.07,0.94-0.03,1.28-0.3c0.35-0.26,0.53-0.84,0.57-1.72
						c0.03-0.88-0.11-1.49-0.41-1.83c-0.3-0.34-0.7-0.52-1.19-0.57c-0.52-0.05-0.92,0.09-1.21,0.44
						C210.95,403.02,210.78,403.52,210.72,404.17 M211.33,399.57c-0.06,0.73,0,1.29,0.19,1.69c0.19,0.39,0.51,0.62,0.95,0.66
						c0.48,0.05,0.86-0.1,1.11-0.44c0.26-0.34,0.39-0.87,0.42-1.58c0.03-0.65-0.08-1.14-0.3-1.49c-0.22-0.35-0.54-0.53-0.96-0.56
						c-0.37-0.02-0.68,0.11-0.95,0.39C211.54,398.52,211.38,398.96,211.33,399.57"/>
					<path class="st11" d="M218.78,403.77c-1.07,0.09-2.14,0.13-3.21,0.12c-0.07-0.13-0.05-0.1-0.12-0.23
						c1.31-2.02,2.5-4.11,3.58-6.17c0.18,0.04,0.15,0.03,0.33,0.07c0.11,1.9,0.22,3.8,0.33,5.7c0.2-0.02,0.4-0.04,0.59-0.07
						c0.36-0.04,0.58-0.1,0.64-0.15c0.06-0.05,0.14-0.26,0.24-0.61c0.09-0.01,0.19-0.03,0.28-0.04c-0.02,0.35-0.04,0.71-0.06,1.06
						c-0.55,0.09-1.11,0.16-1.67,0.22c0.02,0.39,0.05,0.78,0.07,1.16c0.04,0.66,0.07,1.06,0.11,1.2c0.03,0.14,0.11,0.23,0.24,0.28
						c0.13,0.05,0.35,0.05,0.68,0c0.01,0.1,0.01,0.21,0.02,0.31c-0.98,0.16-1.98,0.27-2.97,0.33c0-0.11-0.01-0.21-0.01-0.32
						c0.08-0.01,0.16-0.01,0.24-0.02c0.27-0.02,0.46-0.07,0.58-0.16c0.11-0.09,0.18-0.2,0.19-0.34c0.02-0.14,0.01-0.54-0.02-1.19
						C218.82,404.55,218.8,404.16,218.78,403.77 M219.41,403.35c-0.07-1.46-0.13-2.92-0.2-4.39c-0.81,1.51-1.69,3.02-2.63,4.5
						C217.53,403.46,218.47,403.42,219.41,403.35"/>
					<path class="st11" d="M222.86,401.95c-0.14-1.39,0-2.53,0.39-3.41c0.39-0.88,0.94-1.35,1.7-1.45c0.75-0.1,1.42,0.2,2.01,0.85
						c0.59,0.66,1,1.56,1.21,2.76c0.21,1.2,0.14,2.25-0.23,3.18c-0.37,0.93-0.97,1.58-1.8,1.85c-0.83,0.27-1.57,0.05-2.17-0.65
						C223.36,404.39,223,403.32,222.86,401.95 M223.9,401.76c0.2,1.8,0.48,2.92,0.84,3.32c0.36,0.41,0.81,0.53,1.35,0.35
						c0.63-0.2,1.02-0.64,1.18-1.27c0.16-0.63,0.11-1.68-0.12-3.17c-0.27-1.67-0.58-2.69-0.92-3.1c-0.34-0.4-0.76-0.58-1.24-0.51
						c-0.48,0.07-0.83,0.35-1.06,0.87C223.71,398.78,223.7,399.95,223.9,401.76"/>
					<path class="st12" d="M188.8,411.49c0.07,0.04,0.15,0.07,0.22,0.11c-0.3,0.67-0.6,1.34-0.91,2.01
						c-1.78-0.88-3.53-1.84-5.24-2.88c0.03-0.07,0.07-0.15,0.1-0.22c0.04,0.03,0.08,0.05,0.13,0.08c0.31,0.19,0.53,0.26,0.65,0.23
						c0.13-0.03,0.23-0.11,0.32-0.23c0.08-0.12,0.24-0.45,0.48-0.99c0.46-1.06,0.92-2.12,1.38-3.18c0.21-0.5,0.34-0.83,0.38-1
						c0.04-0.17,0.03-0.31-0.02-0.43c-0.06-0.11-0.23-0.25-0.5-0.42c0.03-0.07,0.06-0.15,0.1-0.22c1.35,0.82,2.73,1.58,4.13,2.29
						c-0.16,0.58-0.32,1.16-0.47,1.74c-0.07-0.04-0.14-0.07-0.21-0.11c0.08-0.51,0.09-0.9,0.03-1.17s-0.18-0.47-0.34-0.62
						c-0.16-0.15-0.45-0.33-0.86-0.55c-0.27-0.15-0.54-0.3-0.8-0.45c-0.38,0.92-0.76,1.83-1.14,2.74c0.21,0.12,0.43,0.24,0.64,0.36
						c0.29,0.16,0.51,0.25,0.65,0.25c0.14,0.01,0.25-0.03,0.33-0.13c0.08-0.09,0.19-0.3,0.31-0.63c0.07,0.04,0.14,0.07,0.21,0.11
						c-0.29,0.76-0.59,1.51-0.88,2.27c-0.07-0.04-0.14-0.08-0.21-0.11c0.15-0.37,0.21-0.63,0.21-0.78
						c-0.01-0.15-0.06-0.28-0.15-0.38c-0.09-0.1-0.27-0.21-0.53-0.36c-0.22-0.12-0.44-0.25-0.66-0.37
						c-0.22,0.51-0.43,1.03-0.65,1.54c-0.33,0.77-0.47,1.25-0.44,1.44c0.04,0.19,0.27,0.4,0.69,0.64c0.16,0.09,0.31,0.17,0.47,0.25
						c0.33,0.18,0.63,0.28,0.88,0.3c0.25,0.02,0.53-0.06,0.83-0.24C188.21,412.23,188.5,411.92,188.8,411.49"/>
					<path class="st12" d="M194.1,411.56c-0.27,0.91-0.54,1.82-0.81,2.72c-0.14,0.45-0.21,0.74-0.24,0.86
						c-0.02,0.12,0,0.22,0.07,0.31c0.07,0.09,0.21,0.18,0.42,0.26c-0.02,0.08-0.05,0.16-0.07,0.23c-0.5-0.18-0.88-0.28-1.14-0.27
						l-0.06-0.02c-0.05-0.23,0-0.57,0.13-1.03c-0.3,0.24-0.6,0.39-0.9,0.44c-0.31,0.05-0.61,0.01-0.92-0.12
						c-0.27-0.12-0.48-0.28-0.64-0.5c-0.16-0.22-0.25-0.43-0.26-0.64c-0.01-0.21,0.05-0.5,0.17-0.86c0.16-0.46,0.32-0.92,0.48-1.39
						c0.16-0.47,0.26-0.76,0.28-0.87c0.02-0.11,0-0.21-0.06-0.3c-0.06-0.09-0.2-0.18-0.42-0.29c0.03-0.08,0.05-0.15,0.08-0.23
						c0.42,0.2,0.84,0.4,1.26,0.59c-0.32,0.95-0.63,1.89-0.96,2.84c-0.09,0.28-0.15,0.49-0.16,0.63c-0.01,0.14,0.03,0.29,0.13,0.44
						c0.1,0.15,0.24,0.27,0.41,0.34c0.25,0.11,0.51,0.13,0.79,0.05c0.28-0.07,0.49-0.19,0.63-0.35c0.14-0.16,0.27-0.41,0.37-0.77
						c0.1-0.31,0.19-0.62,0.29-0.93c0.14-0.45,0.22-0.73,0.24-0.83c0.02-0.1,0.01-0.2-0.04-0.3c-0.05-0.1-0.18-0.2-0.4-0.29
						l-0.1-0.04l0.07-0.23C193.22,411.21,193.66,411.39,194.1,411.56"/>
					<path class="st12" d="M198.13,413.39c0.35-0.25,0.66-0.33,0.93-0.25c0.15,0.05,0.26,0.12,0.32,0.24
						c0.06,0.11,0.09,0.23,0.06,0.33c-0.05,0.23-0.17,0.32-0.36,0.26c-0.11-0.03-0.18-0.13-0.23-0.29c-0.04-0.15-0.1-0.24-0.17-0.26
						c-0.12-0.04-0.27,0.01-0.46,0.15c0.1,0.33,0.11,0.66,0.04,0.98c-0.1,0.41-0.32,0.74-0.68,0.97c-0.36,0.23-0.88,0.25-1.55,0.05
						c-0.7-0.21-1.08-0.19-1.16,0.08c-0.03,0.13,0.02,0.24,0.16,0.35c0.14,0.11,0.45,0.27,0.95,0.46c0.54,0.21,0.95,0.4,1.22,0.57
						c0.28,0.17,0.48,0.4,0.6,0.69c0.12,0.29,0.15,0.6,0.07,0.92c-0.1,0.46-0.37,0.77-0.81,0.94c-0.44,0.16-1.01,0.14-1.71-0.1
						c-0.64-0.21-1.11-0.52-1.42-0.9c-0.31-0.38-0.41-0.76-0.3-1.14c0.06-0.21,0.16-0.36,0.31-0.45c0.14-0.09,0.31-0.1,0.51-0.03
						c0.05,0.02,0.1,0.05,0.14,0.08c-0.27,0.16-0.44,0.37-0.52,0.62c-0.08,0.3-0.02,0.6,0.21,0.89c0.23,0.3,0.62,0.54,1.18,0.73
						c0.5,0.17,0.92,0.19,1.24,0.08c0.33-0.11,0.53-0.33,0.6-0.64c0.08-0.34,0.02-0.63-0.2-0.84c-0.21-0.21-0.63-0.43-1.24-0.67
						c-0.71-0.27-1.14-0.53-1.31-0.76c-0.17-0.22-0.22-0.45-0.16-0.68c0.13-0.45,0.5-0.62,1.13-0.52c-0.26-0.3-0.43-0.6-0.51-0.9
						c-0.09-0.3-0.09-0.6,0-0.91c0.12-0.43,0.37-0.73,0.76-0.92c0.39-0.19,0.79-0.21,1.21-0.07
						C197.52,412.62,197.9,412.93,198.13,413.39 M195.7,413.8c-0.12,0.44-0.12,0.79,0,1.06c0.12,0.26,0.31,0.44,0.58,0.53
						c0.25,0.08,0.49,0.05,0.71-0.09c0.23-0.15,0.4-0.47,0.53-0.98c0.12-0.51,0.12-0.89-0.02-1.14c-0.14-0.25-0.32-0.42-0.55-0.49
						c-0.29-0.1-0.54-0.05-0.74,0.13C196,412.99,195.83,413.32,195.7,413.8"/>
					<path class="st12" d="M203.13,415.85c-0.94-0.2-1.87-0.43-2.8-0.68c-0.05,0.2-0.09,0.35-0.11,0.45
						c-0.15,0.75-0.16,1.35-0.01,1.78c0.15,0.44,0.45,0.72,0.91,0.83c0.62,0.15,1.1-0.04,1.46-0.55c0.08,0.02,0.16,0.04,0.24,0.05
						c-0.17,0.33-0.43,0.57-0.79,0.69c-0.36,0.13-0.73,0.15-1.11,0.05c-0.35-0.09-0.67-0.26-0.94-0.53
						c-0.27-0.27-0.47-0.59-0.6-0.98c-0.12-0.39-0.13-0.82-0.03-1.3c0.15-0.67,0.45-1.18,0.91-1.52c0.46-0.35,0.95-0.45,1.5-0.32
						c0.51,0.13,0.88,0.39,1.11,0.8C203.09,415.04,203.18,415.44,203.13,415.85 M202.31,415.44c0.02-0.08,0.04-0.15,0.05-0.21
						c0.05-0.31,0.01-0.57-0.12-0.78s-0.32-0.34-0.56-0.4c-0.58-0.14-1.01,0.16-1.28,0.91
						C201.03,415.13,201.67,415.29,202.31,415.44"/>
					<path class="st12" d="M205.14,414.57c0.04,0.01,0.09,0.02,0.13,0.02c0.04,0.23,0.04,0.54,0,0.92c0.28-0.26,0.55-0.44,0.83-0.54
						c0.27-0.11,0.55-0.14,0.83-0.09c0.32,0.05,0.57,0.16,0.76,0.34c0.19,0.17,0.3,0.37,0.34,0.59c0.04,0.22,0.04,0.53-0.01,0.94
						c-0.05,0.45-0.09,0.91-0.14,1.36c-0.05,0.5-0.07,0.81-0.07,0.92c0.01,0.11,0.05,0.2,0.14,0.27c0.09,0.07,0.25,0.12,0.49,0.15
						c-0.01,0.08-0.02,0.16-0.02,0.25c-0.72-0.09-1.44-0.19-2.16-0.3c0.01-0.08,0.02-0.16,0.03-0.24c0.03,0.01,0.06,0.01,0.1,0.02
						c0.25,0.04,0.41,0.02,0.5-0.04c0.08-0.06,0.14-0.14,0.16-0.24c0.02-0.1,0.06-0.39,0.11-0.88c0.05-0.47,0.1-0.94,0.16-1.4
						c0.04-0.34,0.05-0.59,0.03-0.74c-0.01-0.15-0.08-0.29-0.21-0.43c-0.12-0.13-0.29-0.22-0.5-0.25c-0.24-0.04-0.47,0-0.71,0.12
						c-0.24,0.12-0.47,0.31-0.71,0.58c-0.08,0.59-0.16,1.18-0.25,1.77c-0.07,0.5-0.1,0.81-0.1,0.92c0,0.11,0.05,0.21,0.13,0.28
						c0.08,0.07,0.25,0.13,0.49,0.17c-0.01,0.08-0.02,0.16-0.03,0.24c-0.71-0.12-1.42-0.25-2.12-0.4c0.01-0.08,0.03-0.16,0.04-0.24
						c0.23,0.05,0.4,0.06,0.5,0.02c0.1-0.03,0.17-0.09,0.2-0.19c0.04-0.1,0.1-0.41,0.17-0.94c0.06-0.43,0.13-0.86,0.19-1.29
						c0.07-0.5,0.11-0.81,0.11-0.92c0-0.11-0.04-0.2-0.12-0.27c-0.08-0.07-0.23-0.13-0.47-0.18c0.01-0.08,0.02-0.16,0.04-0.24
						C204.37,414.63,204.75,414.62,205.14,414.57"/>
					<path class="st12" d="M212.99,417.16c-0.95-0.05-1.9-0.12-2.85-0.21c-0.03,0.21-0.05,0.37-0.05,0.47
						c-0.06,0.77,0.01,1.36,0.22,1.77c0.2,0.41,0.54,0.63,1,0.67c0.63,0.05,1.09-0.22,1.37-0.79c0.08,0,0.16,0.01,0.25,0.01
						c-0.12,0.36-0.35,0.63-0.69,0.82c-0.34,0.19-0.7,0.26-1.09,0.23c-0.36-0.03-0.69-0.15-1-0.37c-0.31-0.22-0.54-0.51-0.72-0.87
						c-0.17-0.36-0.24-0.79-0.19-1.28c0.06-0.69,0.3-1.24,0.71-1.66c0.41-0.42,0.89-0.6,1.45-0.56c0.52,0.04,0.92,0.24,1.2,0.61
						C212.85,416.37,212.99,416.75,212.99,417.16 M212.12,416.9c0.01-0.08,0.02-0.15,0.03-0.22c0.01-0.31-0.06-0.56-0.22-0.75
						c-0.16-0.19-0.36-0.29-0.61-0.31c-0.59-0.05-0.98,0.32-1.15,1.11C210.82,416.8,211.47,416.86,212.12,416.9"/>
					<path class="st12" d="M223.66,419.67c-0.63,0.08-1.26,0.15-1.89,0.21c-0.35-0.21-0.91-0.8-1.64-1.78
						c-0.23-0.31-0.47-0.61-0.72-0.9c-0.24-0.29-0.41-0.46-0.5-0.53c-0.09-0.06-0.22-0.09-0.41-0.08c-0.09,0-0.18,0.01-0.27,0.01
						c0.02,0.54,0.03,1.07,0.05,1.61c0.02,0.57,0.04,0.95,0.07,1.12c0.03,0.18,0.1,0.3,0.22,0.39c0.11,0.08,0.33,0.12,0.65,0.1
						c0.11-0.01,0.22-0.01,0.34-0.02l0.01,0.25c-1.12,0.06-2.25,0.1-4.01,0.1v0.38h0.87c0.3-0.63,0.51-0.67,0.62-0.75
						c0.11-0.08,0.19-0.2,0.21-0.37c0.03-0.17,0.04-0.55,0.03-1.16c-0.02-1.19-0.04-2.38-0.06-3.57c-0.01-0.58-0.03-0.95-0.06-1.12
						c-0.03-0.17-0.1-0.28-0.2-0.35c-0.1-0.06-0.31-0.09-0.64,0.16H217v-0.49c-0.45-0.02-0.15-0.04,0.16-0.06
						c0.61-0.05,1.1-0.08,1.45-0.1c0.61-0.03,1.11,0,1.5,0.1c0.39,0.1,0.71,0.28,0.97,0.55c0.26,0.27,0.4,0.61,0.43,1.01
						c0.03,0.47-0.1,0.89-0.39,1.26c-0.3,0.36-0.76,0.61-1.38,0.73c0.29,0.13,0.76,0.63,1.46,1.48c0.57,0.69,1.02,1.13,1.34,1.33
						c0.32,0.2,0.69,0.28,1.1,0.24C223.65,419.5,223.66,419.58,223.66,419.67 M218.24,416.34c0.25-0.02,0.5-0.04,0.77-0.07
						s0.49-0.08,0.68-0.16c0.19-0.08,0.34-0.18,0.46-0.31s0.2-0.3,0.26-0.51c0.06-0.2,0.08-0.45,0.06-0.75
						c-0.03-0.51-0.17-0.91-0.41-1.2c-0.24-0.29-0.74-0.41-1.5-0.37c-0.12,0.01-0.25,0.02-0.4,0.04L218.24,416.34z"/>
					<path class="st12" d="M224.86,414.9c0.12,1.01,0.23,2.02,0.35,3.03c0.05,0.46,0.09,0.76,0.12,0.87
						c0.03,0.12,0.09,0.2,0.18,0.25c0.09,0.05,0.25,0.06,0.47,0.02c0.04-0.01,0.07-0.01,0.11-0.02c0.01,0.08,0.02,0.16,0.03,0.24
						c-0.75,0.12-1.51,0.24-2.27,0.33c-0.01-0.08-0.02-0.16-0.02-0.24c0.06-0.01,0.12-0.02,0.18-0.02c0.24-0.03,0.4-0.09,0.46-0.17
						c0.06-0.08,0.1-0.18,0.1-0.28c0-0.1-0.02-0.4-0.08-0.88c-0.05-0.44-0.09-0.88-0.14-1.32c-0.05-0.51-0.11-0.82-0.17-0.93
						c-0.06-0.11-0.12-0.17-0.2-0.19c-0.08-0.02-0.21-0.02-0.39,0.01l-0.13,0.02c-0.01-0.08-0.02-0.16-0.02-0.25
						c0.57-0.14,1.01-0.3,1.32-0.47C224.79,414.91,224.82,414.9,224.86,414.9 M223.69,412.81c-0.02-0.15,0.02-0.29,0.1-0.41
						c0.08-0.12,0.19-0.19,0.33-0.21c0.13-0.02,0.25,0.02,0.36,0.11c0.11,0.1,0.17,0.22,0.19,0.37c0.02,0.16-0.01,0.3-0.1,0.42
						c-0.08,0.12-0.19,0.2-0.33,0.22c-0.14,0.02-0.26-0.02-0.37-0.12C223.77,413.09,223.71,412.96,223.69,412.81"/>
					<path class="st12" d="M227.13,414.51c0.02,0,0.03-0.01,0.05-0.01c0.13,0.22,0.22,0.51,0.27,0.88c0.17-0.35,0.37-0.62,0.6-0.82
						c0.23-0.2,0.48-0.34,0.77-0.4c0.32-0.07,0.6-0.05,0.83,0.06c0.23,0.11,0.42,0.32,0.56,0.62c0.19-0.38,0.39-0.69,0.62-0.91
						c0.22-0.23,0.47-0.38,0.73-0.45c0.3-0.08,0.57-0.08,0.82,0.01c0.24,0.09,0.41,0.23,0.5,0.41c0.09,0.18,0.18,0.49,0.28,0.92
						c0.1,0.43,0.19,0.85,0.29,1.28c0.11,0.49,0.19,0.79,0.23,0.89c0.04,0.1,0.11,0.17,0.21,0.19c0.1,0.03,0.27,0,0.51-0.07
						c0.02,0.08,0.04,0.16,0.06,0.24c-0.68,0.21-1.37,0.41-2.06,0.6c-0.02-0.08-0.03-0.16-0.05-0.24c0.22-0.06,0.37-0.13,0.44-0.2
						c0.08-0.07,0.12-0.17,0.11-0.27c0-0.11-0.06-0.42-0.17-0.93c-0.1-0.47-0.2-0.95-0.31-1.42c-0.06-0.29-0.12-0.5-0.18-0.64
						c-0.06-0.14-0.17-0.24-0.32-0.31c-0.15-0.07-0.33-0.08-0.53-0.02c-0.21,0.06-0.4,0.19-0.58,0.39
						c-0.18,0.21-0.35,0.49-0.51,0.86c0.11,0.56,0.21,1.13,0.32,1.69c0.09,0.46,0.15,0.74,0.18,0.86c0.03,0.11,0.1,0.19,0.19,0.24
						c0.09,0.04,0.25,0.04,0.46-0.01c0.02,0.08,0.03,0.16,0.05,0.24c-0.67,0.17-1.34,0.33-2.01,0.48c-0.01-0.08-0.03-0.16-0.04-0.24
						c0.23-0.05,0.38-0.11,0.46-0.18c0.08-0.07,0.12-0.16,0.13-0.26s-0.04-0.42-0.13-0.94c-0.07-0.4-0.14-0.79-0.21-1.19
						c-0.07-0.38-0.13-0.65-0.19-0.81c-0.06-0.16-0.17-0.29-0.33-0.38c-0.16-0.09-0.34-0.11-0.55-0.07
						c-0.2,0.04-0.39,0.16-0.58,0.34c-0.19,0.18-0.37,0.44-0.55,0.76c0.09,0.6,0.18,1.2,0.27,1.8c0.07,0.48,0.12,0.77,0.15,0.88
						c0.03,0.11,0.1,0.19,0.19,0.23c0.1,0.04,0.26,0.04,0.49-0.01l0.04,0.24c-0.68,0.14-1.37,0.27-2.05,0.39
						c-0.01-0.08-0.02-0.16-0.03-0.24c0.22-0.04,0.38-0.09,0.46-0.16c0.08-0.07,0.13-0.15,0.13-0.26s-0.03-0.42-0.1-0.94
						c-0.06-0.43-0.12-0.86-0.18-1.3c-0.07-0.49-0.12-0.8-0.15-0.9s-0.09-0.18-0.19-0.22c-0.09-0.04-0.25-0.04-0.48,0l-0.03-0.24
						C226.48,414.82,226.85,414.67,227.13,414.51"/>
					<path class="st12" d="M234.97,412.43c0.02-0.01,0.03-0.01,0.05-0.02c0.15,0.2,0.27,0.48,0.36,0.84
						c0.14-0.37,0.31-0.67,0.51-0.9c0.2-0.23,0.44-0.4,0.72-0.5c0.31-0.12,0.59-0.13,0.83-0.05c0.24,0.08,0.45,0.26,0.62,0.54
						c0.14-0.4,0.32-0.73,0.52-0.99c0.2-0.26,0.43-0.44,0.68-0.54c0.29-0.12,0.56-0.16,0.81-0.1c0.25,0.06,0.43,0.17,0.53,0.34
						c0.11,0.17,0.23,0.46,0.37,0.87c0.14,0.41,0.28,0.82,0.42,1.23c0.16,0.47,0.27,0.76,0.32,0.86c0.05,0.09,0.13,0.15,0.23,0.16
						c0.1,0.01,0.27-0.04,0.5-0.14c0.03,0.08,0.05,0.15,0.08,0.23c-0.66,0.3-1.31,0.6-1.98,0.88l-0.07-0.23
						c0.21-0.09,0.35-0.18,0.42-0.26c0.07-0.08,0.1-0.18,0.08-0.29c-0.01-0.11-0.1-0.4-0.26-0.9c-0.15-0.46-0.3-0.91-0.45-1.37
						c-0.09-0.28-0.17-0.48-0.25-0.61c-0.08-0.13-0.19-0.21-0.35-0.26c-0.16-0.05-0.33-0.03-0.53,0.05
						c-0.2,0.08-0.38,0.24-0.54,0.47c-0.16,0.23-0.29,0.54-0.41,0.92c0.16,0.55,0.32,1.09,0.49,1.64c0.13,0.44,0.22,0.72,0.27,0.83
						c0.05,0.11,0.12,0.18,0.22,0.21c0.1,0.03,0.25,0.01,0.46-0.08c0.02,0.08,0.05,0.15,0.07,0.23c-0.64,0.26-1.29,0.51-1.94,0.75
						c-0.02-0.08-0.04-0.16-0.07-0.23c0.22-0.08,0.37-0.16,0.44-0.24c0.07-0.08,0.1-0.17,0.1-0.28c-0.01-0.11-0.08-0.41-0.23-0.92
						c-0.11-0.39-0.22-0.77-0.33-1.16c-0.11-0.37-0.19-0.63-0.27-0.78s-0.19-0.26-0.36-0.33c-0.17-0.07-0.35-0.06-0.55,0.01
						c-0.19,0.07-0.37,0.21-0.54,0.42c-0.17,0.21-0.32,0.49-0.46,0.83c0.15,0.58,0.3,1.17,0.45,1.75c0.12,0.46,0.2,0.75,0.24,0.86
						c0.04,0.11,0.12,0.18,0.22,0.21c0.1,0.03,0.26,0,0.48-0.07c0.02,0.08,0.04,0.16,0.06,0.24c-0.66,0.23-1.33,0.46-2,0.67
						c-0.02-0.08-0.04-0.16-0.06-0.24c0.22-0.07,0.37-0.14,0.44-0.22c0.08-0.08,0.11-0.17,0.11-0.28c-0.01-0.11-0.07-0.41-0.2-0.92
						c-0.11-0.42-0.21-0.84-0.32-1.26c-0.12-0.48-0.2-0.77-0.24-0.88c-0.04-0.1-0.11-0.17-0.21-0.2c-0.1-0.03-0.25-0.01-0.47,0.06
						c-0.02-0.08-0.04-0.16-0.06-0.24C234.36,412.84,234.71,412.64,234.97,412.43"/>
					<path class="st12" d="M245.51,409.55c-0.86,0.47-1.72,0.93-2.6,1.36c0.06,0.2,0.11,0.35,0.14,0.44
						c0.26,0.71,0.56,1.19,0.91,1.44c0.35,0.25,0.73,0.27,1.15,0.05c0.57-0.3,0.87-0.78,0.88-1.43c0.07-0.04,0.15-0.08,0.22-0.12
						c0.04,0.38-0.05,0.75-0.27,1.09c-0.22,0.35-0.51,0.61-0.86,0.79c-0.33,0.17-0.67,0.24-1.03,0.22
						c-0.36-0.03-0.69-0.15-0.99-0.38c-0.3-0.23-0.53-0.57-0.69-1.02c-0.23-0.64-0.24-1.26-0.05-1.85c0.19-0.59,0.54-1.01,1.05-1.28
						c0.48-0.25,0.91-0.28,1.3-0.11C245.06,408.92,245.34,409.19,245.51,409.55 M244.64,409.78c-0.02-0.08-0.04-0.15-0.07-0.21
						c-0.11-0.29-0.28-0.47-0.49-0.54c-0.22-0.08-0.43-0.06-0.66,0.06c-0.54,0.28-0.73,0.81-0.57,1.61
						C243.46,410.4,244.05,410.1,244.64,409.78"/>
					<path class="st12" d="M245.53,404.56c0.75,1.75,1.51,3.49,2.28,5.22c0.19,0.42,0.31,0.68,0.37,0.78
						c0.06,0.1,0.14,0.16,0.24,0.17c0.1,0.01,0.25-0.04,0.45-0.16c0.04-0.02,0.07-0.04,0.11-0.07c0.03,0.07,0.07,0.14,0.1,0.22
						c-0.67,0.41-1.34,0.8-2.02,1.18c-0.03-0.07-0.06-0.15-0.09-0.22c0.04-0.02,0.09-0.05,0.13-0.07c0.19-0.11,0.31-0.21,0.36-0.3
						c0.06-0.1,0.07-0.2,0.04-0.3c-0.03-0.11-0.14-0.38-0.33-0.84c-0.56-1.29-1.11-2.59-1.66-3.89c-0.17-0.41-0.32-0.65-0.43-0.73
						c-0.11-0.07-0.29-0.03-0.54,0.11c-0.03-0.07-0.06-0.15-0.09-0.22c0.17-0.1,0.37-0.24,0.58-0.41c0.21-0.18,0.35-0.32,0.42-0.41
						C245.47,404.6,245.5,404.58,245.53,404.56"/>
				</g>
			</g>
		</g>
	</g>
	<circle class="st13" cx="217" cy="217" r="201"/>
</g>
</svg>
